<svg id="activ-fitness_logo" xmlns="http://www.w3.org/2000/svg" xmlns:xlink="http://www.w3.org/1999/xlink" width="53.678" height="53.573" viewBox="0 0 53.678 53.573">
  <defs>
    <clipPath id="clip-path">
      <rect id="Rettangolo_1839" data-name="Rettangolo 1839" width="53.678" height="53.573"/>
    </clipPath>
  </defs>
  <rect id="Rettangolo_1838" data-name="Rettangolo 1838" width="53.678" height="53.573" fill="#e30613"/>
  <path id="Tracciato_477" data-name="Tracciato 477" d="M11.238,32.369h0l-1.31,3.774H12.5ZM9.089,38.5,8.25,40.547H5L9.56,28.7h3.355l4.456,11.847h-3.3L13.282,38.5Z" transform="translate(-2.379 -13.656)" fill="#fff"/>
  <g id="Raggruppa_934" data-name="Raggruppa 934">
    <g id="Raggruppa_923" data-name="Raggruppa 923" clip-path="url(#clip-path)">
      <path id="Tracciato_478" data-name="Tracciato 478" d="M38.469,32.446a3.428,3.428,0,0,0-2.726-1.31,3.278,3.278,0,0,0,.052,6.552,3.6,3.6,0,0,0,2.673-1.258v3.722a9.082,9.082,0,0,1-2.726.577A6.586,6.586,0,0,1,31.287,39,5.83,5.83,0,0,1,29.4,34.49a6.26,6.26,0,0,1,6.238-6.29,7.587,7.587,0,0,1,2.831.577Z" transform="translate(-13.989 -13.418)" fill="#fff"/>
    </g>
    <g id="Raggruppa_924" data-name="Raggruppa 924" clip-path="url(#clip-path)">
      <path id="Tracciato_479" data-name="Tracciato 479" d="M54.209,40.547H51.116V31.321H48.6V28.7h8.177v2.621H54.209Z" transform="translate(-23.124 -13.656)" fill="#fff"/>
    </g>
    <g id="Raggruppa_925" data-name="Raggruppa 925" clip-path="url(#clip-path)">
      <rect id="Rettangolo_1841" data-name="Rettangolo 1841" width="3.093" height="11.847" transform="translate(34.754 15.044)" fill="#fff"/>
    </g>
    <g id="Raggruppa_926" data-name="Raggruppa 926" clip-path="url(#clip-path)">
      <path id="Tracciato_480" data-name="Tracciato 480" d="M79.838,35.881,82.721,28.7h3.355L80.991,40.547H78.632L73.6,28.7h3.355Z" transform="translate(-35.019 -13.656)" fill="#fff"/>
    </g>
    <g id="Raggruppa_927" data-name="Raggruppa 927" clip-path="url(#clip-path)">
      <path id="Tracciato_481" data-name="Tracciato 481" d="M6.734,62.234v1.94h2.2v.681h-2.2v3.3H6V61.5H9.04v.734Z" transform="translate(-2.855 -29.262)" fill="#fff"/>
    </g>
    <g id="Raggruppa_928" data-name="Raggruppa 928" clip-path="url(#clip-path)">
      <rect id="Rettangolo_1845" data-name="Rettangolo 1845" width="0.734" height="6.657" transform="translate(10.065 32.238)" fill="#fff"/>
    </g>
    <g id="Raggruppa_929" data-name="Raggruppa 929" clip-path="url(#clip-path)">
      <path id="Tracciato_482" data-name="Tracciato 482" d="M29.659,68.157h-.734V62.234H27.3V61.5h3.984v.734H29.659Z" transform="translate(-12.989 -29.262)" fill="#fff"/>
    </g>
    <g id="Raggruppa_930" data-name="Raggruppa 930" clip-path="url(#clip-path)">
      <path id="Tracciato_483" data-name="Tracciato 483" d="M41.6,61l5.137,5.452v-5.19h.786v6.972l-5.19-5.4v5.085H41.6Z" transform="translate(-19.793 -29.024)" fill="#fff"/>
    </g>
    <g id="Raggruppa_931" data-name="Raggruppa 931" clip-path="url(#clip-path)">
      <path id="Tracciato_484" data-name="Tracciato 484" d="M60.7,61.5h3.407v.734H61.434v1.94h2.621v.681H61.434v2.621h2.673v.681H60.7Z" transform="translate(-28.881 -29.262)" fill="#fff"/>
    </g>
    <g id="Raggruppa_932" data-name="Raggruppa 932" clip-path="url(#clip-path)">
      <path id="Tracciato_485" data-name="Tracciato 485" d="M77.555,62.81a1.2,1.2,0,0,0-1.153-.734,1.063,1.063,0,0,0-1.1,1.048c0,.577.577.839,1.048,1.048l.419.21c.839.367,1.573.786,1.573,1.887a2.059,2.059,0,0,1-2.1,2.044,2.033,2.033,0,0,1-2.044-1.73l.734-.21a1.4,1.4,0,0,0,1.31,1.258,1.31,1.31,0,0,0,1.363-1.31c0-.786-.629-1.048-1.206-1.31l-.419-.157c-.786-.367-1.468-.734-1.468-1.677A1.725,1.725,0,0,1,76.349,61.5a1.909,1.909,0,0,1,1.73,1.048Z" transform="translate(-35.305 -29.262)" fill="#fff"/>
    </g>
    <g id="Raggruppa_933" data-name="Raggruppa 933" clip-path="url(#clip-path)">
      <path id="Tracciato_486" data-name="Tracciato 486" d="M92.007,62.81a1.2,1.2,0,0,0-1.153-.734,1.063,1.063,0,0,0-1.1,1.048c0,.577.577.839,1.048,1.048l.419.21c.839.367,1.573.786,1.573,1.887a2.059,2.059,0,0,1-2.1,2.044,2.126,2.126,0,0,1-2.1-1.73l.734-.21a1.4,1.4,0,0,0,1.31,1.258,1.31,1.31,0,0,0,1.363-1.31c0-.786-.629-1.048-1.206-1.31l-.419-.157c-.786-.367-1.468-.734-1.468-1.677A1.725,1.725,0,0,1,90.749,61.5a1.909,1.909,0,0,1,1.73,1.048Z" transform="translate(-42.156 -29.262)" fill="#fff"/>
    </g>
  </g>
</svg>
